<?xml version="1.0" standalone="no"?>
    <!DOCTYPE svg PUBLIC "-//W3C//DTD SVG 20010904//EN"
    "http://www.w3.org/TR/2001/REC-SVG-20010904/DTD/svg10.dtd">
    <svg style="fill: red;" version="1.0" xmlns="http://www.w3.org/2000/svg"
    width="670.000000pt" height="309.000000pt" viewBox="0 0 670.000000 309.000000"
    preserveAspectRatio="xMidYMid meet">

    <g transform="translate(0.000000,309.000000) scale(0.100000,-0.100000)"
    stroke="none">
    <path d="M1410 2979 c-343 -35 -637 -176 -885 -424 -255 -255 -389 -541 -425
    -907 -24 -253 37 -561 157 -788 105 -198 304 -421 473 -532 290 -189 622 -277
    937 -247 358 33 659 173 909 423 500 500 570 1260 171 1851 -35 51 -111 140
    -177 206 -247 248 -538 384 -894 418 -122 12 -144 12 -266 0z m343 -344 c147
    -28 348 -111 432 -179 l30 -24 -784 -783 -783 -784 -24 30 c-68 84 -151 285
    -179 432 -19 100 -19 306 0 406 88 459 438 810 900 903 88 17 315 17 408 -1z
    m735 -487 c122 -180 182 -383 182 -616 0 -314 -108 -577 -326 -796 -219 -218
    -482 -326 -796 -326 -149 0 -229 13 -367 59 -108 36 -291 136 -291 158 0 9
    1553 1563 1562 1563 4 0 20 -19 36 -42z"/>
    <path d="M3547 2312 l-317 -317 0 -118 0 -117 315 0 314 0 3 -97 3 -98 153 -3
    152 -3 0 101 0 100 80 0 81 0 -3 113 -3 112 -77 3 -78 3 0 319 0 320 -153 0
    -152 0 -318 -318z m313 -162 l0 -160 -162 0 -163 0 160 160 c88 88 161 160
    162 160 2 0 3 -72 3 -160z"/>
    <path d="M4788 2615 c-198 -40 -301 -144 -340 -345 -6 -30 -11 -113 -11 -185
    2 -261 75 -413 237 -489 74 -35 142 -46 275 -46 187 0 316 41 390 125 79 90
    113 214 114 410 0 272 -70 418 -237 496 -105 48 -283 63 -428 34z m234 -203
    c66 -39 93 -157 86 -377 -5 -151 -20 -208 -69 -254 -80 -74 -206 -27 -241 91
    -18 61 -18 390 1 443 38 112 130 152 223 97z"/>
    <path d="M5975 2624 c-11 -2 -45 -9 -75 -15 -115 -23 -218 -98 -267 -192 -13
    -27 -22 -52 -19 -55 5 -4 291 -51 318 -52 3 0 9 13 13 30 26 116 208 151 260
    50 42 -81 -38 -170 -153 -170 l-39 0 -6 -67 c-4 -38 -7 -82 -7 -100 l0 -31 78
    5 c92 7 143 -11 173 -61 26 -42 26 -131 0 -170 -76 -116 -263 -88 -302 45 -12
    39 -13 40 -53 34 -23 -3 -99 -12 -170 -20 -71 -8 -130 -16 -132 -18 -2 -1 7
    -25 20 -52 52 -111 160 -192 293 -220 88 -19 317 -19 404 -1 132 28 228 96
    279 198 25 51 30 73 30 131 0 43 -6 82 -16 103 -25 52 -95 109 -160 129 l-57
    18 34 17 c47 25 109 87 125 126 21 49 17 112 -10 170 -33 71 -103 121 -211
    151 -49 14 -310 27 -350 17z"/>
    <path d="M3170 910 l0 -460 75 0 75 0 0 190 0 190 90 0 90 0 0 90 0 90 -90 0
    -90 0 0 85 0 85 105 0 105 0 0 95 0 95 -180 0 -180 0 0 -460z"/>
    <path d="M4290 910 l0 -460 60 0 60 0 1 43 c0 36 2 40 12 23 36 -56 60 -76 92
    -76 68 0 111 70 134 217 29 189 -6 398 -77 453 -45 36 -109 23 -136 -28 -14
    -25 -15 -14 -16 131 l0 157 -65 0 -65 0 0 -460z m219 8 c19 -30 26 -181 12
    -235 -23 -84 -83 -71 -96 21 -23 154 33 295 84 214z"/>
    <path d="M4720 1285 l0 -85 65 0 65 0 0 85 0 85 -65 0 -65 0 0 -85z"/>
    <path d="M5160 1215 l0 -156 -31 36 c-65 73 -148 32 -186 -93 -26 -83 -25
    -341 2 -431 25 -87 64 -131 115 -131 38 0 59 17 97 76 10 17 12 13 12 -23 l1
    -43 60 0 60 0 0 460 0 460 -65 0 -65 0 0 -155z m-24 -300 c21 -32 30 -166 15
    -222 -35 -130 -101 -71 -101 90 0 101 17 157 49 157 11 0 28 -11 37 -25z"/>
    <path d="M5590 1219 l0 -151 -26 31 c-21 25 -33 31 -66 31 -51 0 -87 -36 -113
    -112 -26 -76 -33 -318 -11 -411 28 -120 62 -167 121 -167 39 0 62 16 84 58
    l20 37 1 -42 0 -43 60 0 60 0 0 460 0 460 -65 0 -65 0 0 -151z m-17 -306 c35
    -69 27 -237 -13 -277 l-20 -20 -20 20 c-41 41 -48 244 -9 290 18 22 47 16 62
    -13z"/>
    <path d="M3673 1111 c-70 -43 -113 -166 -113 -326 0 -215 71 -345 188 -345 80
    0 127 44 166 155 27 76 33 245 12 337 -19 87 -62 160 -105 182 -41 22 -109 20
    -148 -3z m100 -166 c29 -28 39 -85 35 -184 -4 -110 -22 -155 -61 -149 -38 5
    -57 61 -57 170 0 101 10 145 37 166 22 16 28 15 46 -3z"/>
    <path d="M4167 1113 c-8 -10 -22 -34 -30 -53 l-15 -35 -1 48 -1 47 -60 0 -60
    0 0 -335 0 -335 64 0 63 0 6 198 c3 108 11 214 17 234 12 43 36 61 62 47 14
    -8 19 1 33 69 9 42 18 82 20 89 5 17 -28 43 -57 43 -14 0 -32 -8 -41 -17z"/>
    <path d="M5890 1104 c-66 -56 -100 -164 -100 -322 0 -162 44 -293 110 -327 16
    -8 53 -15 83 -15 71 0 113 28 150 99 40 80 38 87 -32 98 -58 9 -59 9 -76 -19
    -34 -58 -91 -24 -102 62 l-6 40 128 0 128 0 -5 113 c-10 206 -68 297 -189 297
    -47 0 -63 -5 -89 -26z m125 -144 c10 -11 20 -42 23 -70 l5 -50 -63 0 -63 0 5
    45 c10 83 54 119 93 75z"/>
    <path d="M6404 1097 c-16 -19 -34 -42 -41 -53 -10 -16 -12 -12 -12 29 l-1 47
    -60 0 -60 0 0 -335 0 -335 64 0 64 0 4 218 c3 227 10 262 49 262 39 0 44 -25
    47 -257 l3 -223 66 0 65 0 -5 278 c-5 292 -10 331 -53 378 -36 38 -94 34 -130
    -9z"/>
    <path d="M4720 785 l0 -335 65 0 65 0 0 335 0 335 -65 0 -65 0 0 -335z"/>
    </g>
    </svg>
